<svg xmlns="http://www.w3.org/2000/svg" xmlns:xlink="http://www.w3.org/1999/xlink"><defs><style>
    .sprite-symbol-usage {display: none;}
    .sprite-symbol-usage:target {display: inline;}
  </style><symbol viewBox="0 0 448 512" id="fa-bars-solid">
<!--! Font Awesome Pro 6.4.0 by @fontawesome - https://fontawesome.com License - https://fontawesome.com/license (Commercial License) Copyright 2023 Fonticons, Inc.-->
  <path d="M0 96c0-17.7 14.3-32 32-32h384c17.7 0 32 14.3 32 32s-14.3 32-32 32H32c-17.7 0-32-14.3-32-32zm0 160c0-17.7 14.3-32 32-32h384c17.7 0 32 14.3 32 32s-14.3 32-32 32H32c-17.7 0-32-14.3-32-32zm448 160c0 17.7-14.3 32-32 32H32c-17.7 0-32-14.3-32-32s14.3-32 32-32h384c17.7 0 32 14.3 32 32z" />
</symbol><symbol viewBox="0 0 512 512" id="fa-chevron-up-solid">
<!--! Font Awesome Pro 6.4.0 by @fontawesome - https://fontawesome.com License - https://fontawesome.com/license (Commercial License) Copyright 2023 Fonticons, Inc.-->
  <path d="M233.4 105.4c12.5-12.5 32.8-12.5 45.3 0l192 192c12.5 12.5 12.5 32.8 0 45.3s-32.8 12.5-45.3 0L256 173.3 86.6 342.6c-12.5 12.5-32.8 12.5-45.3 0s-12.5-32.8 0-45.3l192-192z" />
</symbol><symbol viewBox="0 0 448 512" id="fa-user-solid">
<!--! Font Awesome Pro 6.4.0 by @fontawesome - https://fontawesome.com License - https://fontawesome.com/license (Commercial License) Copyright 2023 Fonticons, Inc.-->
  <path d="M224 256a128 128 0 1 0 0-256 128 128 0 1 0 0 256zm-45.7 48C79.8 304 0 383.8 0 482.3 0 498.7 13.3 512 29.7 512h388.6c16.4 0 29.7-13.3 29.7-29.7 0-98.5-79.8-178.3-178.3-178.3h-91.4z" />
</symbol><symbol viewBox="0 -960 960 960" id="ma-bars">
  <path d="M120-240v-60h720v60H120Zm0-210v-60h720v60H120Zm0-210v-60h720v60H120Z" />
</symbol><symbol viewBox="0 -960 960 960" id="ma-chevron-up">
  <path d="m283-345-43-43 240-240 240 239-43 43-197-197-197 198Z" />
</symbol><symbol viewBox="0 -960 960 960" id="ma-person">
  <path d="M480-481q-66 0-108-42t-42-108q0-66 42-108t108-42q66 0 108 42t42 108q0 66-42 108t-108 42ZM160-160v-94q0-38 19-65t49-41q67-30 128.5-45T480-420q62 0 123 15.5t127.921 44.694q31.301 14.126 50.19 40.966Q800-292 800-254v94H160Zm60-60h520v-34q0-16-9.5-30.5T707-306q-64-31-117-42.5T480-360q-57 0-111 11.5T252-306q-14 7-23 21.5t-9 30.5v34Zm260-321q39 0 64.5-25.5T570-631q0-39-25.5-64.5T480-721q-39 0-64.5 25.5T390-631q0 39 25.5 64.5T480-541Zm0-90Zm0 411Z" />
</symbol><symbol viewBox="0 0 448 512" id="rnd_chevron_up_icon">
  <path d="M416 352c-8.188 0-16.38-3.125-22.62-9.375L224 173.3 54.6 342.7c-12.5 12.5-32.75 12.5-45.25 0s-12.5-32.75 0-45.25l192-192c12.5-12.5 32.75-12.5 45.25 0l192 192c12.5 12.5 12.5 32.75 0 45.25-6.2 6.2-14.4 9.3-22.6 9.3z" />
</symbol><symbol viewBox="0 0 48 48" id="rnd_menu_icon">
  <path fill="none" d="M0 0h48v48H0z" />
  <path d="M6 36h36v-4H6v4zm0-10h36v-4H6v4zm0-14v4h36v-4H6z" />
</symbol><symbol viewBox="0 0 512 512" id="rnd_person_icon">
  <path d="M332.64 64.58C313.18 43.57 286 32 256 32c-30.16 0-57.43 11.5-76.8 32.38-19.58 21.11-29.12 49.8-26.88 80.78C156.76 206.28 203.27 256 256 256s99.16-49.71 103.67-110.82c2.27-30.7-7.33-59.33-27.03-80.6ZM432 480H80a31 31 0 0 1-24.2-11.13c-6.5-7.77-9.12-18.38-7.18-29.11C57.06 392.94 83.4 353.61 124.8 326c36.78-24.51 83.37-38 131.2-38s94.42 13.5 131.2 38c41.4 27.6 67.74 66.93 76.18 113.75 1.94 10.73-.68 21.34-7.18 29.11A31 31 0 0 1 432 480Z" />
</symbol></defs><use id="fa-bars-solid-usage" xlink:href="#fa-bars-solid" class="sprite-symbol-usage" /><use id="fa-chevron-up-solid-usage" xlink:href="#fa-chevron-up-solid" class="sprite-symbol-usage" /><use id="fa-user-solid-usage" xlink:href="#fa-user-solid" class="sprite-symbol-usage" /><use id="ma-bars-usage" xlink:href="#ma-bars" class="sprite-symbol-usage" /><use id="ma-chevron-up-usage" xlink:href="#ma-chevron-up" class="sprite-symbol-usage" /><use id="ma-person-usage" xlink:href="#ma-person" class="sprite-symbol-usage" /><use id="rnd_chevron_up_icon-usage" xlink:href="#rnd_chevron_up_icon" class="sprite-symbol-usage" /><use id="rnd_menu_icon-usage" xlink:href="#rnd_menu_icon" class="sprite-symbol-usage" /><use id="rnd_person_icon-usage" xlink:href="#rnd_person_icon" class="sprite-symbol-usage" /></svg>